<?xml version="1.0" encoding="iso-8859-1"?>
<!-- Uploaded to: SVG Repo, www.svgrepo.com, Generator: SVG Repo Mixer Tools -->
<svg height="800px" width="800px" version="1.1" id="Layer_1" xmlns="http://www.w3.org/2000/svg" xmlns:xlink="http://www.w3.org/1999/xlink" 
	 viewBox="0 0 392.573 392.573" xml:space="preserve">
<g>
	<path style="fill:#FFFFFF;" d="M54.984,207.943H44.059c7.758,25.988,11.572,51.329,11.313,75.636
		c-0.517,37.43,4.978,64.646,15.515,79.063c13.576-42.02,48.42-134.659,91.733-134.659c43.378,0,78.222,92.703,91.733,134.788
		c9.374-12.606,14.675-35.103,15.451-66.133c0.84-34.457,9.18-69.624,24.63-104.533l-13.123-17.002
		c-5.172,0.905-10.537,1.552-15.968,1.552c-48.679,0-88.307-39.628-88.307-88.307c0-2.327,0.129-4.655,0.388-6.982
		c-21.269,1.293-41.244-0.646-59.669-5.818c-8.016-2.263-16.356-3.232-24.824-2.909c-33.616,1.034-62.836,23.273-69.495,53.01
		c-1.228,5.624-1.681,11.313-1.293,16.873h54.303c6.012,0,10.925,4.848,10.925,10.925c0,6.012-4.848,10.925-10.925,10.925H27.444
		c3.297,7.37,6.335,14.61,9.051,21.786h18.36c6.012,0,10.925,4.848,10.925,10.925C65.844,203.094,60.996,207.943,54.984,207.943z"/>
	<path style="fill:#FFFFFF;" d="M198.822,88.347c0,36.655,29.802,66.457,66.457,66.457s66.457-29.802,66.457-66.457
		S301.933,21.89,265.279,21.89C228.689,21.89,198.822,51.757,198.822,88.347z M291.267,58.48c4.396-4.202,11.313-3.943,15.451,0.388
		c6.723,7.758,9.503,17.907,8.21,30.772c-1.422,11.055-11.184,10.408-11.378,10.408c-6.012-0.259-10.667-5.301-10.408-11.378
		c0.517-7.434-0.065-12.606-2.133-14.739C286.741,69.47,286.871,62.617,291.267,58.48z M287.194,113.365
		c4.913,3.491,6.077,10.279,2.651,15.192c-3.62,5.236-10.731,5.689-15.192,2.651c-9.244-6.594-15.515-17.261-16.679-28.574
		c-0.646-6.012,3.814-11.378,9.762-11.96c6.012-0.646,11.378,3.814,11.96,9.762C280.147,105.543,282.992,110.456,287.194,113.365z
		 M237.545,41.672c10.02-5.883,22.238-7.822,33.616-5.172c5.883,1.422,9.503,7.176,8.21,13.059
		c-1.293,5.883-7.176,9.503-13.059,8.21c-5.947-1.422-12.347-0.388-17.713,2.715c-4.267,2.651-11.83,1.681-14.933-3.879
		C230.693,51.433,232.374,44.775,237.545,41.672z M232.374,80.654c5.947-0.323,11.119,4.267,11.507,10.279
		c0.323,6.077,3.103,12.024,7.499,16.291c4.331,4.202,4.59,11.055,0.388,15.451c-3.943,4.331-11.442,4.59-15.451,0.388
		c-8.404-8.016-13.576-19.329-14.222-30.901C221.707,86.084,226.362,80.912,232.374,80.654z"/>
</g>
<path style="fill:#56ACE0;" d="M368.067,201.995l-39.952-51.588c-7.111,7.176-15.515,13.123-24.824,17.519l39.564,51.135
	c6.4,7.37,13.576,8.727,21.463,4.202C371.234,218.415,372.85,208.912,368.067,201.995z"/>
<g>
	<path style="fill:#194F82;" d="M248.6,60.549c5.236-3.103,11.766-4.073,17.713-2.715c5.883,1.293,11.766-2.327,13.059-8.21
		c1.293-5.883-2.327-11.766-8.21-13.059c-11.378-2.651-23.596-0.711-33.616,5.172c-5.172,3.103-6.982,9.762-3.879,14.933
		C236.77,62.165,244.333,63.134,248.6,60.549z"/>
	<path style="fill:#194F82;" d="M251.703,122.674c4.202-4.331,4.008-11.313-0.388-15.451c-4.396-4.267-7.176-10.149-7.499-16.291
		c-0.323-6.012-5.495-10.667-11.507-10.279c-6.012,0.323-10.667,5.495-10.279,11.507c0.646,11.572,5.818,22.885,14.222,30.901
		C240.261,127.134,247.824,127.005,251.703,122.674z"/>
	<path style="fill:#194F82;" d="M293.077,88.67c-0.259,6.012,4.396,11.119,10.408,11.378c0.129,0,9.956,0.646,11.378-10.408
		c1.422-12.8-1.487-23.014-8.21-30.772c-4.202-4.331-11.055-4.59-15.451-0.388c-4.331,4.202-4.59,11.055-0.388,15.451
		C292.947,75.999,293.594,81.235,293.077,88.67z"/>
	<path style="fill:#194F82;" d="M267.671,90.674c-6.012,0.646-10.343,5.947-9.762,11.96c1.164,11.378,7.37,22.044,16.679,28.574
		c4.396,3.103,11.572,2.65,15.192-2.651c3.491-4.913,2.327-11.766-2.651-15.192c-4.202-2.909-7.046-7.887-7.564-12.994
		C278.984,94.488,273.683,90.027,267.671,90.674z"/>
	<path style="fill:#194F82;" d="M385.651,189.066l-43.895-56.76c7.499-12.994,11.895-27.992,11.895-44.024
		c0-48.614-39.628-88.242-88.307-88.242c-38.465,0-71.176,24.76-83.2,59.087c-21.01,1.939-40.727,0.453-58.57-4.59
		c-10.214-2.78-20.687-4.073-31.354-3.685c-43.442,1.293-81.39,30.772-90.182,70.012c-4.008,17.713-2.069,35.685,5.495,52.234
		c17.713,38.529,26.44,75.572,25.923,110.287c-0.711,58.57,12.024,94.966,38.077,108.089c7.111,2.521,12.283,0.388,15.386-6.723
		c15.838-54.368,50.747-134.917,75.636-134.917c24.889,0,59.863,80.549,75.636,134.917c3.297,7.37,8.469,9.244,15.386,6.723
		c23.855-12.024,36.655-43.766,37.947-94.19c0.711-28.057,6.853-56.63,18.166-85.333l15.58,20.105
		c10.731,15.127,32.97,21.85,51.523,9.051C393.602,229.405,397.675,206.197,385.651,189.066z M364.382,223.199
		c-7.887,4.655-14.998,3.232-21.463-4.202l-39.564-51.135c9.244-4.396,17.648-10.343,24.824-17.519l39.952,51.588
		C372.85,208.912,371.234,218.415,364.382,223.199z M331.865,88.347c0,36.655-29.802,66.457-66.457,66.457
		s-66.457-29.802-66.457-66.457s29.802-66.457,66.457-66.457C301.998,21.89,331.865,51.757,331.865,88.347z M269.804,296.702
		c-0.776,31.095-6.077,53.463-15.45,66.133c-13.511-42.02-48.42-134.788-91.733-134.788s-78.158,92.638-91.733,134.723
		c-10.602-14.481-16.097-41.697-15.515-79.127c0.323-24.372-3.556-49.713-11.313-75.636h10.925c6.012,0,10.925-4.848,10.925-10.925
		c0-6.077-4.848-10.925-10.925-10.925H36.56c-2.78-7.24-5.689-14.545-9.051-21.786h48.808c6.012,0,10.925-4.848,10.925-10.925
		c0-6.012-4.848-10.925-10.925-10.925H21.949c-0.323-5.56,0.065-11.313,1.293-16.873c6.659-29.737,35.879-51.976,69.495-53.01
		c8.404-0.259,16.743,0.711,24.824,2.909c18.489,5.172,38.465,7.111,59.669,5.818c-0.129,2.327-0.388,4.655-0.388,6.982
		c0,48.679,39.628,88.307,88.307,88.307c5.495,0,10.796-0.517,15.968-1.551l13.123,17.002
		C278.984,227.078,270.644,262.246,269.804,296.702z"/>
</g>
<g>
	<path style="fill:#FFC10D;" d="M265.279,176.654c-43.378,0-79.451-31.354-86.885-72.663c0,0-49.972-2.715-66.521-7.434
		c-5.301-1.487-12.929-2.133-18.489-2.133c-23.402,0.711-44.412,16.162-48.808,36.008c-0.905,4.073-1.164,8.145-0.776,12.024h32.517
		c6.012,0,10.925,4.848,10.925,10.925c0,6.012-4.848,10.925-10.925,10.925H51.234c3.297,7.822,6.465,15.58,9.18,23.337
		c3.232,1.875,5.43,5.301,5.43,9.374c0,1.616-0.388,3.103-1.034,4.461c8.404,28.121,12.218,85.01,12.218,86.238
		c17.648-37.43,44.8-81.584,85.463-81.584c40.792,0,68.073,44.412,85.721,81.907c1.551-27.345,13.317-80.614,24.048-111.903
		C269.998,176.524,267.671,176.654,265.279,176.654z"/>
	<path style="fill:#FFC10D;" d="M93.448,94.488C94.224,94.488,92.802,94.488,93.448,94.488L93.448,94.488z"/>
</g>
</svg>